<?xml version="1.0" encoding="UTF-8" standalone="no"?>
<!DOCTYPE svg PUBLIC "-//W3C//DTD SVG 1.1//EN"
 "http://www.w3.org/Graphics/SVG/1.1/DTD/svg11.dtd">
<!-- Generated by graphviz version 2.38.0 (20140413.2041)
 -->
<!-- Title: G Pages: 1 -->
<svg width="338pt" height="304pt"
 viewBox="0.00 0.00 338.00 304.00" xmlns="http://www.w3.org/2000/svg" xmlns:xlink="http://www.w3.org/1999/xlink">
<g id="graph0" class="graph" transform="scale(1 1) rotate(0) translate(4 300)">
<title>G</title>
<polygon fill="white" stroke="none" points="-4,4 -4,-300 334,-300 334,4 -4,4"/>
<!-- 140269980821488 -->
<g id="node1" class="node"><title>140269980821488</title>
<polygon fill="none" stroke="black" points="0,-249.5 0,-295.5 330,-295.5 330,-249.5 0,-249.5"/>
<text text-anchor="middle" x="38.5" y="-268.8" font-family="Times,serif" font-size="14.00">InputLayer</text>
<polyline fill="none" stroke="black" points="77,-249.5 77,-295.5 "/>
<text text-anchor="middle" x="104.5" y="-280.3" font-family="Times,serif" font-size="14.00">input:</text>
<polyline fill="none" stroke="black" points="77,-272.5 132,-272.5 "/>
<text text-anchor="middle" x="104.5" y="-257.3" font-family="Times,serif" font-size="14.00">output:</text>
<polyline fill="none" stroke="black" points="132,-249.5 132,-295.5 "/>
<text text-anchor="middle" x="181.5" y="-268.8" font-family="Times,serif" font-size="14.00">[(None, 5, 10)]</text>
<polyline fill="none" stroke="black" points="231,-249.5 231,-295.5 "/>
<text text-anchor="middle" x="280.5" y="-268.8" font-family="Times,serif" font-size="14.00">[(None, 5, 10)]</text>
</g>
<!-- 140263084020016 -->
<g id="node2" class="node"><title>140263084020016</title>
<polygon fill="none" stroke="black" points="22.5,-166.5 22.5,-212.5 307.5,-212.5 307.5,-166.5 22.5,-166.5"/>
<text text-anchor="middle" x="47.5" y="-185.8" font-family="Times,serif" font-size="14.00">Dense</text>
<polyline fill="none" stroke="black" points="72.5,-166.5 72.5,-212.5 "/>
<text text-anchor="middle" x="100" y="-197.3" font-family="Times,serif" font-size="14.00">input:</text>
<polyline fill="none" stroke="black" points="72.5,-189.5 127.5,-189.5 "/>
<text text-anchor="middle" x="100" y="-174.3" font-family="Times,serif" font-size="14.00">output:</text>
<polyline fill="none" stroke="black" points="127.5,-166.5 127.5,-212.5 "/>
<text text-anchor="middle" x="172.5" y="-185.8" font-family="Times,serif" font-size="14.00">(None, 5, 10)</text>
<polyline fill="none" stroke="black" points="217.5,-166.5 217.5,-212.5 "/>
<text text-anchor="middle" x="262.5" y="-185.8" font-family="Times,serif" font-size="14.00">(None, 5, 48)</text>
</g>
<!-- 140269980821488&#45;&gt;140263084020016 -->
<g id="edge1" class="edge"><title>140269980821488&#45;&gt;140263084020016</title>
<path fill="none" stroke="black" d="M165,-249.366C165,-241.152 165,-231.658 165,-222.725"/>
<polygon fill="black" stroke="black" points="168.5,-222.607 165,-212.607 161.5,-222.607 168.5,-222.607"/>
</g>
<!-- 140262632025056 -->
<g id="node3" class="node"><title>140262632025056</title>
<polygon fill="none" stroke="black" points="24,-83.5 24,-129.5 306,-129.5 306,-83.5 24,-83.5"/>
<text text-anchor="middle" x="51" y="-102.8" font-family="Times,serif" font-size="14.00">Flatten</text>
<polyline fill="none" stroke="black" points="78,-83.5 78,-129.5 "/>
<text text-anchor="middle" x="105.5" y="-114.3" font-family="Times,serif" font-size="14.00">input:</text>
<polyline fill="none" stroke="black" points="78,-106.5 133,-106.5 "/>
<text text-anchor="middle" x="105.5" y="-91.3" font-family="Times,serif" font-size="14.00">output:</text>
<polyline fill="none" stroke="black" points="133,-83.5 133,-129.5 "/>
<text text-anchor="middle" x="178" y="-102.8" font-family="Times,serif" font-size="14.00">(None, 5, 48)</text>
<polyline fill="none" stroke="black" points="223,-83.5 223,-129.5 "/>
<text text-anchor="middle" x="264.5" y="-102.8" font-family="Times,serif" font-size="14.00">(None, 240)</text>
</g>
<!-- 140263084020016&#45;&gt;140262632025056 -->
<g id="edge2" class="edge"><title>140263084020016&#45;&gt;140262632025056</title>
<path fill="none" stroke="black" d="M165,-166.366C165,-158.152 165,-148.658 165,-139.725"/>
<polygon fill="black" stroke="black" points="168.5,-139.607 165,-129.607 161.5,-139.607 168.5,-139.607"/>
</g>
<!-- 140262065914496 -->
<g id="node4" class="node"><title>140262065914496</title>
<polygon fill="none" stroke="black" points="36.5,-0.5 36.5,-46.5 293.5,-46.5 293.5,-0.5 36.5,-0.5"/>
<text text-anchor="middle" x="61.5" y="-19.8" font-family="Times,serif" font-size="14.00">Dense</text>
<polyline fill="none" stroke="black" points="86.5,-0.5 86.5,-46.5 "/>
<text text-anchor="middle" x="114" y="-31.3" font-family="Times,serif" font-size="14.00">input:</text>
<polyline fill="none" stroke="black" points="86.5,-23.5 141.5,-23.5 "/>
<text text-anchor="middle" x="114" y="-8.3" font-family="Times,serif" font-size="14.00">output:</text>
<polyline fill="none" stroke="black" points="141.5,-0.5 141.5,-46.5 "/>
<text text-anchor="middle" x="183" y="-19.8" font-family="Times,serif" font-size="14.00">(None, 240)</text>
<polyline fill="none" stroke="black" points="224.5,-0.5 224.5,-46.5 "/>
<text text-anchor="middle" x="259" y="-19.8" font-family="Times,serif" font-size="14.00">(None, 3)</text>
</g>
<!-- 140262632025056&#45;&gt;140262065914496 -->
<g id="edge3" class="edge"><title>140262632025056&#45;&gt;140262065914496</title>
<path fill="none" stroke="black" d="M165,-83.3664C165,-75.1516 165,-65.6579 165,-56.7252"/>
<polygon fill="black" stroke="black" points="168.5,-56.6068 165,-46.6068 161.5,-56.6069 168.5,-56.6068"/>
</g>
</g>
</svg>
