<?xml version="1.0" encoding="UTF-8" standalone="no"?>
<!DOCTYPE svg PUBLIC "-//W3C//DTD SVG 1.1//EN"
 "http://www.w3.org/Graphics/SVG/1.1/DTD/svg11.dtd">
<!-- Generated by graphviz version 2.38.0 (20140413.2041)
 -->
<!-- Title: G Pages: 1 -->
<svg width="338pt" height="387pt"
 viewBox="0.00 0.00 338.00 387.00" xmlns="http://www.w3.org/2000/svg" xmlns:xlink="http://www.w3.org/1999/xlink">
<g id="graph0" class="graph" transform="scale(1 1) rotate(0) translate(4 383)">
<title>G</title>
<polygon fill="white" stroke="none" points="-4,4 -4,-383 334,-383 334,4 -4,4"/>
<!-- 140656630512992 -->
<g id="node1" class="node"><title>140656630512992</title>
<polygon fill="none" stroke="black" points="0,-332.5 0,-378.5 330,-378.5 330,-332.5 0,-332.5"/>
<text text-anchor="middle" x="38.5" y="-351.8" font-family="Times,serif" font-size="14.00">InputLayer</text>
<polyline fill="none" stroke="black" points="77,-332.5 77,-378.5 "/>
<text text-anchor="middle" x="104.5" y="-363.3" font-family="Times,serif" font-size="14.00">input:</text>
<polyline fill="none" stroke="black" points="77,-355.5 132,-355.5 "/>
<text text-anchor="middle" x="104.5" y="-340.3" font-family="Times,serif" font-size="14.00">output:</text>
<polyline fill="none" stroke="black" points="132,-332.5 132,-378.5 "/>
<text text-anchor="middle" x="181.5" y="-351.8" font-family="Times,serif" font-size="14.00">[(None, 5, 10)]</text>
<polyline fill="none" stroke="black" points="231,-332.5 231,-378.5 "/>
<text text-anchor="middle" x="280.5" y="-351.8" font-family="Times,serif" font-size="14.00">[(None, 5, 10)]</text>
</g>
<!-- 140657640594784 -->
<g id="node2" class="node"><title>140657640594784</title>
<polygon fill="none" stroke="black" points="16.5,-249.5 16.5,-295.5 313.5,-295.5 313.5,-249.5 16.5,-249.5"/>
<text text-anchor="middle" x="47.5" y="-268.8" font-family="Times,serif" font-size="14.00">Conv1D</text>
<polyline fill="none" stroke="black" points="78.5,-249.5 78.5,-295.5 "/>
<text text-anchor="middle" x="106" y="-280.3" font-family="Times,serif" font-size="14.00">input:</text>
<polyline fill="none" stroke="black" points="78.5,-272.5 133.5,-272.5 "/>
<text text-anchor="middle" x="106" y="-257.3" font-family="Times,serif" font-size="14.00">output:</text>
<polyline fill="none" stroke="black" points="133.5,-249.5 133.5,-295.5 "/>
<text text-anchor="middle" x="178.5" y="-268.8" font-family="Times,serif" font-size="14.00">(None, 5, 10)</text>
<polyline fill="none" stroke="black" points="223.5,-249.5 223.5,-295.5 "/>
<text text-anchor="middle" x="268.5" y="-268.8" font-family="Times,serif" font-size="14.00">(None, 5, 32)</text>
</g>
<!-- 140656630512992&#45;&gt;140657640594784 -->
<g id="edge1" class="edge"><title>140656630512992&#45;&gt;140657640594784</title>
<path fill="none" stroke="black" d="M165,-332.366C165,-324.152 165,-314.658 165,-305.725"/>
<polygon fill="black" stroke="black" points="168.5,-305.607 165,-295.607 161.5,-305.607 168.5,-305.607"/>
</g>
<!-- 140657640592624 -->
<g id="node3" class="node"><title>140657640592624</title>
<polygon fill="none" stroke="black" points="16.5,-166.5 16.5,-212.5 313.5,-212.5 313.5,-166.5 16.5,-166.5"/>
<text text-anchor="middle" x="47.5" y="-185.8" font-family="Times,serif" font-size="14.00">Conv1D</text>
<polyline fill="none" stroke="black" points="78.5,-166.5 78.5,-212.5 "/>
<text text-anchor="middle" x="106" y="-197.3" font-family="Times,serif" font-size="14.00">input:</text>
<polyline fill="none" stroke="black" points="78.5,-189.5 133.5,-189.5 "/>
<text text-anchor="middle" x="106" y="-174.3" font-family="Times,serif" font-size="14.00">output:</text>
<polyline fill="none" stroke="black" points="133.5,-166.5 133.5,-212.5 "/>
<text text-anchor="middle" x="178.5" y="-185.8" font-family="Times,serif" font-size="14.00">(None, 5, 32)</text>
<polyline fill="none" stroke="black" points="223.5,-166.5 223.5,-212.5 "/>
<text text-anchor="middle" x="268.5" y="-185.8" font-family="Times,serif" font-size="14.00">(None, 5, 32)</text>
</g>
<!-- 140657640594784&#45;&gt;140657640592624 -->
<g id="edge2" class="edge"><title>140657640594784&#45;&gt;140657640592624</title>
<path fill="none" stroke="black" d="M165,-249.366C165,-241.152 165,-231.658 165,-222.725"/>
<polygon fill="black" stroke="black" points="168.5,-222.607 165,-212.607 161.5,-222.607 168.5,-222.607"/>
</g>
<!-- 140664567757936 -->
<g id="node4" class="node"><title>140664567757936</title>
<polygon fill="none" stroke="black" points="24,-83.5 24,-129.5 306,-129.5 306,-83.5 24,-83.5"/>
<text text-anchor="middle" x="51" y="-102.8" font-family="Times,serif" font-size="14.00">Flatten</text>
<polyline fill="none" stroke="black" points="78,-83.5 78,-129.5 "/>
<text text-anchor="middle" x="105.5" y="-114.3" font-family="Times,serif" font-size="14.00">input:</text>
<polyline fill="none" stroke="black" points="78,-106.5 133,-106.5 "/>
<text text-anchor="middle" x="105.5" y="-91.3" font-family="Times,serif" font-size="14.00">output:</text>
<polyline fill="none" stroke="black" points="133,-83.5 133,-129.5 "/>
<text text-anchor="middle" x="178" y="-102.8" font-family="Times,serif" font-size="14.00">(None, 5, 32)</text>
<polyline fill="none" stroke="black" points="223,-83.5 223,-129.5 "/>
<text text-anchor="middle" x="264.5" y="-102.8" font-family="Times,serif" font-size="14.00">(None, 160)</text>
</g>
<!-- 140657640592624&#45;&gt;140664567757936 -->
<g id="edge3" class="edge"><title>140657640592624&#45;&gt;140664567757936</title>
<path fill="none" stroke="black" d="M165,-166.366C165,-158.152 165,-148.658 165,-139.725"/>
<polygon fill="black" stroke="black" points="168.5,-139.607 165,-129.607 161.5,-139.607 168.5,-139.607"/>
</g>
<!-- 140664569201520 -->
<g id="node5" class="node"><title>140664569201520</title>
<polygon fill="none" stroke="black" points="36.5,-0.5 36.5,-46.5 293.5,-46.5 293.5,-0.5 36.5,-0.5"/>
<text text-anchor="middle" x="61.5" y="-19.8" font-family="Times,serif" font-size="14.00">Dense</text>
<polyline fill="none" stroke="black" points="86.5,-0.5 86.5,-46.5 "/>
<text text-anchor="middle" x="114" y="-31.3" font-family="Times,serif" font-size="14.00">input:</text>
<polyline fill="none" stroke="black" points="86.5,-23.5 141.5,-23.5 "/>
<text text-anchor="middle" x="114" y="-8.3" font-family="Times,serif" font-size="14.00">output:</text>
<polyline fill="none" stroke="black" points="141.5,-0.5 141.5,-46.5 "/>
<text text-anchor="middle" x="183" y="-19.8" font-family="Times,serif" font-size="14.00">(None, 160)</text>
<polyline fill="none" stroke="black" points="224.5,-0.5 224.5,-46.5 "/>
<text text-anchor="middle" x="259" y="-19.8" font-family="Times,serif" font-size="14.00">(None, 3)</text>
</g>
<!-- 140664567757936&#45;&gt;140664569201520 -->
<g id="edge4" class="edge"><title>140664567757936&#45;&gt;140664569201520</title>
<path fill="none" stroke="black" d="M165,-83.3664C165,-75.1516 165,-65.6579 165,-56.7252"/>
<polygon fill="black" stroke="black" points="168.5,-56.6068 165,-46.6068 161.5,-56.6069 168.5,-56.6068"/>
</g>
</g>
</svg>
